<?xml version="1.0" encoding="UTF-8"?>
<!--Generator: Apple Native CoreSVG 341-->
<!DOCTYPE svg
PUBLIC "-//W3C//DTD SVG 1.1//EN"
       "http://www.w3.org/Graphics/SVG/1.1/DTD/svg11.dtd">
<svg version="1.1" xmlns="http://www.w3.org/2000/svg" xmlns:xlink="http://www.w3.org/1999/xlink" viewBox="0 0 640.5 588.25">
 <g>
  <rect height="588.25" opacity="0" width="640.5" x="0" y="0"/>
  <path d="M97.25 588.25L543 588.25C607.75 588.25 640.5 555.75 640.5 492L640.5 97C640.5 33.25 607.75 0.75 543 0.75L97.25 0.75C32.75 0.75 0 33 0 97L0 492C0 556 32.75 588.25 97.25 588.25ZM93.75 544C61.75 544 44.25 527 44.25 494L44.25 195.75C44.25 162.5 61.75 145.75 93.75 145.75L546.25 145.75C578 145.75 596 162.5 596 195.75L596 494C596 527 578 544 546.25 544ZM256.5 260.75L275.5 260.75C286.25 260.75 289.25 257.75 289.25 247.25L289.25 228.5C289.25 218 286.25 215.25 275.5 215.25L256.5 215.25C246 215.25 243 218 243 228.5L243 247.25C243 257.75 246 260.75 256.5 260.75ZM365.25 260.75L384.25 260.75C394.75 260.75 397.75 257.75 397.75 247.25L397.75 228.5C397.75 218 394.75 215.25 384.25 215.25L365.25 215.25C354.5 215.25 351.5 218 351.5 228.5L351.5 247.25C351.5 257.75 354.5 260.75 365.25 260.75ZM473.75 260.75L492.75 260.75C503.25 260.75 506.5 257.75 506.5 247.25L506.5 228.5C506.5 218 503.25 215.25 492.75 215.25L473.75 215.25C463.25 215.25 460 218 460 228.5L460 247.25C460 257.75 463.25 260.75 473.75 260.75ZM148 367.5L167 367.5C177.5 367.5 180.75 364.75 180.75 354.25L180.75 335.25C180.75 325 177.5 322 167 322L148 322C137.5 322 134.25 325 134.25 335.25L134.25 354.25C134.25 364.75 137.5 367.5 148 367.5ZM256.5 367.5L275.5 367.5C286.25 367.5 289.25 364.75 289.25 354.25L289.25 335.25C289.25 325 286.25 322 275.5 322L256.5 322C246 322 243 325 243 335.25L243 354.25C243 364.75 246 367.5 256.5 367.5ZM365.25 367.5L384.25 367.5C394.75 367.5 397.75 364.75 397.75 354.25L397.75 335.25C397.75 325 394.75 322 384.25 322L365.25 322C354.5 322 351.5 325 351.5 335.25L351.5 354.25C351.5 364.75 354.5 367.5 365.25 367.5ZM473.75 367.5L492.75 367.5C503.25 367.5 506.5 364.75 506.5 354.25L506.5 335.25C506.5 325 503.25 322 492.75 322L473.75 322C463.25 322 460 325 460 335.25L460 354.25C460 364.75 463.25 367.5 473.75 367.5ZM148 474.5L167 474.5C177.5 474.5 180.75 471.75 180.75 461.25L180.75 442.25C180.75 431.75 177.5 429 167 429L148 429C137.5 429 134.25 431.75 134.25 442.25L134.25 461.25C134.25 471.75 137.5 474.5 148 474.5ZM256.5 474.5L275.5 474.5C286.25 474.5 289.25 471.75 289.25 461.25L289.25 442.25C289.25 431.75 286.25 429 275.5 429L256.5 429C246 429 243 431.75 243 442.25L243 461.25C243 471.75 246 474.5 256.5 474.5ZM365.25 474.5L384.25 474.5C394.75 474.5 397.75 471.75 397.75 461.25L397.75 442.25C397.75 431.75 394.75 429 384.25 429L365.25 429C354.5 429 351.5 431.75 351.5 442.25L351.5 461.25C351.5 471.75 354.5 474.5 365.25 474.5Z" fill="white" fill-opacity="0.85"/>
 </g>
</svg>
