<?xml version="1.0" encoding="UTF-8"?>
<!--Generator: Apple Native CoreSVG 341-->
<!DOCTYPE svg
PUBLIC "-//W3C//DTD SVG 1.1//EN"
       "http://www.w3.org/Graphics/SVG/1.1/DTD/svg11.dtd">
<svg version="1.1" xmlns="http://www.w3.org/2000/svg" xmlns:xlink="http://www.w3.org/1999/xlink" viewBox="0 0 771.5 549.25">
 <g>
  <rect height="549.25" opacity="0" width="771.5" x="0" y="0"/>
  <path d="M385.75 314C396.5 314 407 309.75 417.75 300L737.5 17C721 5.5 701 0.25 674 0.25L97.25 0.25C70.25 0.25 50.5 5.5 33.75 17L353.75 300C364.5 309.75 374.75 314 385.75 314ZM10 502L249.75 262.5L9 49.5C4.25 57.25 0 74.25 0 96.5L0 452.75C0 474 3.75 489.75 10 502ZM89.75 549.25L681.75 549.25C706.25 549.25 724 543.25 736 534.75L490.75 289.5L442.5 332.25C424.25 348.25 405.25 356.25 385.75 356.25C366 356.25 347.25 348.25 329 332.25L280.75 289.5L35.25 534.75C47.25 543.25 65.25 549.25 89.75 549.25ZM761.5 502C767.75 489.75 771.5 474 771.5 452.75L771.5 96.5C771.5 74.25 767 57.25 762.25 49.5L521.5 262.5Z" fill="white" fill-opacity="0.85"/>
 </g>
</svg>
