<?xml version="1.0" encoding="UTF-8"?>
<!--Generator: Apple Native CoreSVG 341-->
<!DOCTYPE svg
PUBLIC "-//W3C//DTD SVG 1.1//EN"
       "http://www.w3.org/Graphics/SVG/1.1/DTD/svg11.dtd">
<svg version="1.1" xmlns="http://www.w3.org/2000/svg" xmlns:xlink="http://www.w3.org/1999/xlink" viewBox="0 0 701.25 700.75">
 <g>
  <rect height="700.75" opacity="0" width="701.25" x="0" y="0"/>
  <path d="M400 700.75C421.25 700.75 436.25 683.25 447 654.75L660.5 97C665.5 84 668.25 72.5 668.25 63C668.25 44 656.75 32.25 637.75 32.25C628 32.25 616.75 35.25 603.75 40.25L43.5 254.5C18.25 264.25 0 279.25 0 300.75C0 327 19.5 336.5 49 345.25L233.25 401.5C251.25 407 262.25 406 274.75 394.5L625 64.75C629 61.25 633.25 61.5 636.25 64.25C639.5 67 639.25 71.75 636 75.75L307 426.75C296 438.75 294.5 449.5 300 468.25L354.75 649.5C363.75 680 373.25 700.75 400 700.75Z" fill="white" fill-opacity="0.85"/>
 </g>
</svg>
