<?xml version="1.0" encoding="UTF-8"?>
<!--Generator: Apple Native CoreSVG 341-->
<!DOCTYPE svg
PUBLIC "-//W3C//DTD SVG 1.1//EN"
       "http://www.w3.org/Graphics/SVG/1.1/DTD/svg11.dtd">
<svg version="1.1" xmlns="http://www.w3.org/2000/svg" xmlns:xlink="http://www.w3.org/1999/xlink" viewBox="0 0 973.5 671.25">
 <g>
  <rect height="671.25" opacity="0" width="973.5" x="0" y="0"/>
  <path d="M425.012 417.089C413.768 426.305 403.61 436.145 394.731 446.467C362.394 428.384 323.675 417.5 282.75 417.5C174.25 417.5 81 494 81 578C81 587 85.25 590.5 95 590.5L335.344 590.5C336.427 605.826 340.887 619.74 349.053 631.5L101 631.5C60.25 631.5 39.75 614.5 39.75 580.25C39.75 476.25 145.25 376.75 282.75 376.75C336.587 376.75 385.54 392.06 425.012 417.089ZM402 207.25C402 280.25 349 338.5 283 338.5C217.25 338.5 164 280.5 164 207.75C164 137.75 217.75 79.5 283 79.5C349 79.5 402 136.75 402 207.25ZM205.25 207.75C205.25 257.75 240.5 297.25 283 297.25C325.75 297.25 361 257.75 361 207.25C361 159.25 326.25 120.75 283 120.75C240.5 120.75 205.25 160 205.25 207.75Z" fill="white" fill-opacity="0.85"/>
  <path d="M654.75 334.75C730.5 334.75 791.5 268 791.5 185.25C791.5 104 730.5 39.5 654.75 39.5C579.25 39.5 517.75 105 517.75 185.75C517.75 268.25 579 334.75 654.75 334.75ZM654.75 293C604 293 562 246 562 185.75C562 127.25 603.75 81.25 654.75 81.25C705.75 81.25 747.25 126.5 747.25 185.25C747.25 245.5 705.5 293 654.75 293ZM448.25 631.5L860.5 631.5C910.25 631.5 933.75 616 933.75 582.5C933.75 498.25 827.5 377.25 654.25 377.25C481.25 377.25 375 498.25 375 582.5C375 616 398.5 631.5 448.25 631.5ZM436 589.75C423.75 589.75 419.25 586.5 419.25 577.5C419.25 519.25 504 419.25 654.25 419.25C804.75 419.25 889.5 519.25 889.5 577.5C889.5 586.5 885 589.75 872.75 589.75Z" fill="white" fill-opacity="0.85"/>
 </g>
</svg>
