<?xml version="1.0" encoding="UTF-8"?>
<!--Generator: Apple Native CoreSVG 341-->
<!DOCTYPE svg
PUBLIC "-//W3C//DTD SVG 1.1//EN"
       "http://www.w3.org/Graphics/SVG/1.1/DTD/svg11.dtd">
<svg version="1.1" xmlns="http://www.w3.org/2000/svg" xmlns:xlink="http://www.w3.org/1999/xlink" viewBox="0 0 595 596.25">
 <g>
  <rect height="596.25" opacity="0" width="595" x="0" y="0"/>
  <path d="M163.25 430.25C257.25 524.25 369.75 596 460 596C502.5 596 539.5 579 563.75 551.75C587 525.5 595 506.25 595 489C595 475.25 586.5 463 565.75 448.25L487.75 392.5C468.5 378.75 459.75 376.25 448.25 376.25C438.25 376.25 430 378 413.5 387L362.5 415.25C356.5 418.5 353.75 419 349.25 419C343.25 419 339.25 417.5 333.25 415.25C308.75 403.75 274.5 377.25 244.25 346.75C214.25 316.5 190.5 285.75 178.25 261.25C176.75 258 174.75 253 174.75 248C174.75 244 177 240.25 179.5 235.75L209.5 184.5C217.75 170.5 220 163 220 152C220 139.5 215.75 126.25 203.75 109.5L150.25 34.5C135.25 13 123.5 0 106.25 0C84.75 0 59 16.5 40.75 34.25C14 60 0 95.5 0 135.75C0 226.75 70 337 163.25 430.25Z" fill="white" fill-opacity="0.85"/>
 </g>
</svg>
